<svg xmlns="http://www.w3.org/2000/svg" viewBox="0 0 32 32">
  <rect x="2" y="2" width="28" height="28" rx="6" fill="#e7f0f6" stroke="#91ead1" stroke-width="2"/>
  <path d="M8.5 9 14 13.5 8.5 18" fill="none" stroke="#18232f" stroke-width="3.4" stroke-linecap="round" stroke-linejoin="round"/>
  <rect x="18" y="15" width="5.5" height="3" rx=".7" fill="#18232f"/>
  <circle cx="24" cy="8.5" r="2.5" fill="#f2bd79"/>
  <path d="M24 4.5v.5m0 7v.5m-4-4h.5m7 0h.5m-6.8-2.8.4.4m4.8 4.8.4.4m0-5.6-.4.4m-4.8 4.8-.4.4" fill="none" stroke="#f2bd79" stroke-width="1.3" stroke-linecap="round"/>
  <rect x="8" y="22" width="4.5" height="3.5" rx=".7" fill="#91ead1"/>
  <rect x="13.75" y="22" width="4.5" height="3.5" rx=".7" fill="#b4a1f5"/>
  <rect x="19.5" y="22" width="4.5" height="3.5" rx=".7" fill="#f2bd79"/>
</svg>
